<svg xmlns="http://www.w3.org/2000/svg" viewBox="0 0 40 39.08"><defs><style>.cls-1{fill:#fff;}</style></defs><title>excel</title><g id="Layer_1" data-name="Layer 1"><path class="cls-1" d="M40,30c0-7.88,0-15.76,0-23.65a4.21,4.21,0,0,0-.44-2.3,4.19,4.19,0,0,0-2.29-.44q-6.81,0-13.64,0V0h-2.7Q10.46,1.85,0,3.64v31.8c6.93,1.22,13.87,2.38,20.8,3.64h2.82V35c4.71,0,9.42,0,14.13,0,.76,0,1.9-.06,2.08-1A21.18,21.18,0,0,0,40,30Zm-26.6-3.36a55.15,55.15,0,0,1-2.27-5.71c-.61,1.85-1.5,3.59-2.2,5.4-1,0-2-.06-3-.1,1.17-2.28,2.3-4.59,3.5-6.86-1-2.34-2.15-4.64-3.2-7l3-.17c.68,1.77,1.42,3.53,2,5.35.6-1.93,1.49-3.75,2.26-5.62q1.54-.11,3.09-.18c-1.21,2.48-2.43,5-3.67,7.44,1.25,2.55,2.53,5.07,3.78,7.62Zm25.23,7h-15V30.9h3.63V27.72H23.62V25.9h3.63V22.72H23.62V20.9h3.63V17.72H23.62V15.9h3.63V12.72H23.62V10.91h3.63V7.72H23.62V5h15Z"/></g><g id="Layer_2" data-name="Layer 2"><path class="cls-1" d="M35.43,30.9H29.07V27.72h6.36Z"/></g><g id="Layer_4" data-name="Layer 4"><path class="cls-1" d="M35.43,25.9H29.07V22.72h6.36Z"/></g><g id="Layer_3" data-name="Layer 3"><path class="cls-1" d="M35.43,20.9H29.07V17.72h6.36Z"/></g><g id="Layer_5" data-name="Layer 5"><path class="cls-1" d="M35.43,15.9H29.07V12.72h6.36Z"/></g><g id="Layer_6" data-name="Layer 6"><path class="cls-1" d="M35.43,10.91H29.07V7.72h6.36Z"/></g></svg>